<svg width="12" height="12" xmlns="http://www.w3.org/2000/svg"><path d="M9.436 4c.892 0 1.215.093 1.54.267.327.174.583.43.757.756.174.326.267.65.267 1.54v2.873c0 .892-.093 1.215-.267 1.54-.174.327-.43.583-.756.757-.326.174-.65.267-1.54.267H6.563c-.892 0-1.215-.093-1.54-.267a1.817 1.817 0 0 1-.757-.756C4.093 10.65 4 10.327 4 9.437V9h2v.436c0 .26.009.434.022.542.107.013.282.022.542.022h2.872c.26 0 .434-.009.542-.022.013-.107.022-.282.022-.542V6.564c0-.26-.009-.435-.022-.542A4.762 4.762 0 0 0 9.436 6H9V4h.436zM8 6l-.017.002c-.034.486-.119.73-.25.975-.174.326-.43.582-.756.756-.246.131-.49.216-.975.25L6 8H2.564c-.892 0-1.215-.093-1.54-.267a1.817 1.817 0 0 1-.757-.756C.093 6.65 0 6.327 0 5.437V2.563c0-.892.093-1.215.267-1.54.174-.327.43-.583.756-.757C1.35.093 1.673 0 2.563 0h2.873c.892 0 1.215.093 1.54.267.327.174.583.43.757.756.174.326.267.65.267 1.54V6z" fill="currentColor"/></svg>
