<svg width="16" height="16" xmlns="http://www.w3.org/2000/svg"><path d="M3.99 0l.002 4.477c.565.133 1.1.296 1.595.49L5.586 0h1.596v7.107a12.182 12.182 0 0 1 1.596-1.261V0h1.596v4.94c.522-.279 1.047-.55 1.597-.794V0h1.427c.891 0 1.214.093 1.54.267.326.174.582.43.756.756.175.326.267.65.267 1.54v.624c.023 0 .036.109.038.328v.215c-.002.282-.015.675-.038 1.177-3.307.411-5.958 1.561-7.954 3.45C6.01 10.248 4.742 12.795 4.199 16H2.564v-.003c-.892 0-1.215-.093-1.54-.267a1.817 1.817 0 0 1-.757-.756c-.174-.326-.267-.65-.267-1.54v-.5c.994.185 1.799.56 2.414 1.124.137.126.266.26.385.4a9.305 9.305 0 0 1 .575-1.688 5.84 5.84 0 0 0-1.05-.717c-.636-.341-1.275-.592-2.322-.734V9.715c.866.119 1.66.324 2.379.618.638.26 1.214.586 1.727.98.136-.252.276-.508.417-.773.113-.211.234-.422.362-.63a8.815 8.815 0 0 0-1.008-.63C2.835 8.722 1.774 8.319.002 8.117L0 6.524c1.094.125 2.092.332 2.996.622.946.303 1.882.787 2.808 1.453.329-.414.685-.814 1.063-1.19a11.737 11.737 0 0 0-1.28-.82v-.013a13.798 13.798 0 0 0-2.022-.867 17.544 17.544 0 0 0-1.974-.562 17.183 17.183 0 0 0-1.483-.232L0 4.905V2.564c0-.892.093-1.215.267-1.54.174-.327.43-.583.756-.757C1.35.093 1.673 0 2.563 0H3.99zm11.971 6.529v1.587c-1.773.201-2.835.605-3.879 1.165a8.712 8.712 0 0 0-3.62 3.628c-.47.882-.86 1.768-1.094 3.087h-1.57c.49-2.765 1.588-4.945 3.294-6.54 1.715-1.604 4.004-2.58 6.87-2.927zm0 3.203l-.001 1.588c-1.046.142-1.684.392-2.319.733a5.808 5.808 0 0 0-2.413 2.418c-.246.46-.458.915-.614 1.526h-1.6c.39-1.79 1.175-3.212 2.354-4.265 1.188-1.062 2.72-1.73 4.593-2zm0 3.203v.498c0 .892-.092 1.215-.267 1.54-.174.327-.43.583-.756.757-.326.174-.649.267-1.54.267H12.3a4.643 4.643 0 0 1 1.25-1.939c.614-.563 1.417-.938 2.41-1.123z" fill="currentColor"/></svg>
