<svg width="18" height="19" xmlns="http://www.w3.org/2000/svg"><path d="M8.5 17a1 1 0 1 1 0 2 1 1 0 0 1 0-2zm2.346-2.566a1.472 1.472 0 0 1 1.903-.157c.57.406 1.068.904 1.474 1.473a1.47 1.47 0 0 1-.157 1.902 1.184 1.184 0 0 1-1.194.293 1.182 1.182 0 0 1-.826-.91l-.007-.036a.686.686 0 0 0-.54-.54l-.037-.008a1.199 1.199 0 0 1-.618-2.015zM3.31 14a1.941 1.941 0 0 1 1.382.572l.237.237c.367.366.573.863.572 1.382a.81.81 0 0 1-.81.809 1.941 1.941 0 0 1-1.38-.572l-.238-.237a1.941 1.941 0 0 1-.572-1.382v-.523c0-.158.128-.286.286-.286zM7.5 13a1 1 0 1 1 0 2 1 1 0 0 1 0-2zm9.128-3a.692.692 0 0 1 .48.22c.404.403.513 1.22.245 1.826l-.015.036a1.08 1.08 0 0 0 0 .837l.014.032c.095.214.146.464.148.72.004.728-.385 1.323-.87 1.329-.53.002-.981-.572-1.067-1.355a10.383 10.383 0 0 1 0-2.29c.086-.783.537-1.357 1.065-1.355zM12.5 11a1 1 0 1 1 0 2 1 1 0 0 1 0-2zM5.37 9.358a1.198 1.198 0 0 1 1.694-.014c.514.51.581 1.317.16 1.904a6.303 6.303 0 0 1-1.474 1.475 1.47 1.47 0 0 1-1.902-.157 1.186 1.186 0 0 1-.293-1.196c.126-.423.477-.74.91-.823l.036-.007a.686.686 0 0 0 .54-.54l.008-.037a1.2 1.2 0 0 1 .32-.605zM1.5 10a1 1 0 1 1 0 2 1 1 0 0 1 0-2zm9.714-2c.158 0 .286.128.286.286v.523a1.941 1.941 0 0 1-.572 1.382l-.237.237A1.941 1.941 0 0 1 9.309 11a.81.81 0 0 1-.809-.81 1.941 1.941 0 0 1 .572-1.38l.237-.238A1.941 1.941 0 0 1 10.691 8zM13.5 7a1 1 0 1 1 0 2 1 1 0 0 1 0-2zm-8-.5a1 1 0 1 1 0 2 1 1 0 0 1 0-2zM2.323 4.088a.22.22 0 0 1 .354 0L3 4.48c.321.386.501.911.5 1.459v.354c.001.547-.179 1.072-.5 1.458a.649.649 0 0 1-.5.25.649.649 0 0 1-.5-.25c-.321-.386-.501-.911-.5-1.458v-.354c-.001-.548.179-1.073.5-1.459zM15.31 4a1.941 1.941 0 0 1 1.382.572l.237.237c.367.366.573.863.572 1.382a.81.81 0 0 1-.81.809 1.941 1.941 0 0 1-1.38-.572l-.238-.237a1.941 1.941 0 0 1-.572-1.382v-.523c0-.158.128-.286.286-.286zm-4.095 0c.158 0 .286.128.286.286v.523a1.941 1.941 0 0 1-.572 1.382l-.237.237A1.941 1.941 0 0 1 9.309 7a.81.81 0 0 1-.809-.81 1.941 1.941 0 0 1 .572-1.38l.237-.238A1.941 1.941 0 0 1 10.691 4zM5.628 1a.692.692 0 0 1 .481.221c.403.403.512 1.221.244 1.827l-.015.034a1.08 1.08 0 0 0 0 .837l.014.032c.095.214.147.464.148.72.004.728-.385 1.323-.87 1.329-.53.002-.981-.572-1.067-1.355a10.382 10.382 0 0 1 0-2.29C4.65 1.572 5.1.998 5.628 1zM13.5 2a1 1 0 1 1 0 2 1 1 0 0 1 0-2zM9.25.277a1.473 1.473 0 0 1 1.904.157 1.198 1.198 0 0 1-.618 2.018l-.035.007a.686.686 0 0 0-.543.539l-.008.037c-.083.433-.4.785-.824.91a1.18 1.18 0 0 1-1.19-.292 1.472 1.472 0 0 1-.16-1.903A6.302 6.302 0 0 1 9.252.277z" fill="currentColor"/></svg>
