<svg width="20" height="20" xmlns="http://www.w3.org/2000/svg"><path d="M10.435 0C15.52 0 20 4.48 20 10.435 20 15.52 15.52 20 10.435 20 4.48 20 0 15.52 0 10.435 0 4.48 4.48 0 10.435 0zM6.33 14.706l-.938.488a1 1 0 0 0-.228 1.611c1.082 1.029 2.693 1.543 4.833 1.543 2.143 0 3.757-.516 4.84-1.546a1 1 0 0 0-.224-1.61l-.921-.484a1 1 0 0 0-.91-.01l-2.324 1.158a1 1 0 0 1-.89 0l-2.331-1.159a1 1 0 0 0-.907.009zM8.446 4.538c-.732.232-.57.65-.57.65l-.023-.007c-.128-.04-.754-.185-1.138.599-.295.6-.09 1.286.124 2.264.106.48.083.96.136 1.25 0 0-.096.087-.173.013-.077-.074-.293-.284-.42-.284-.142 0-.327.222-.267.674.06.453.1.657.322 1.201.222.545.577.794.74.743.163-.05.228-.158.228-.158s.146.569.24.849c.302.89 1.366 1.898 1.968 2.071.338.098.524.073.842 0 .446-.1 1.452-.906 1.92-2.028.095-.259.182-.466.273-.928 0-.043.032.073.261.101.23.028.326-.291.56-.766.422-1 .36-1.678.077-1.73-.137-.026-.234.043-.327.129-.047 0-.094 0-.094-.043 0-.303.061-.753.16-1.607.222-1.93-.264-2.552-.264-2.552l-.01.005c-.06.026-.398.124-1.452-.306-.845-.344-2.083-.465-3.113-.14z" fill="currentColor" fill-rule="evenodd"/></svg>
