<svg width="16" height="18" xmlns="http://www.w3.org/2000/svg"><path d="M8 0C3.58 0 0 1.573 0 3.518c0 1.944 3.58 3.518 8 3.518s8-1.574 8-3.518C16 1.573 12.42 0 8 0zM0 4.477v2.696c0 1.944 3.58 3.517 8 3.517s8-1.573 8-3.517V4.477c0 1.945-3.58 3.518-8 3.518S0 6.422 0 4.477zm0 3.655v2.695c0 1.945 3.58 3.518 8 3.518s8-1.573 8-3.518V8.132c0 1.944-3.58 3.518-8 3.518s-8-1.574-8-3.518zm0 3.655v2.695C0 16.427 3.58 18 8 18s8-1.573 8-3.518v-2.695c0 1.944-3.58 3.518-8 3.518s-8-1.574-8-3.518z" fill="currentColor"/></svg>
