<svg width="16" height="12" xmlns="http://www.w3.org/2000/svg"><path d="M2.733 0a.655.655 0 1 0-.46 1.126l1.175 1.172c-1.273 1.018-2.099 2.266-2.506 3a1.303 1.303 0 0 0 0 1.258c.762 1.403 2.949 4.609 7.065 4.609 1.366 0 2.506-.36 3.452-.883l1.35 1.347c.166.172.413.24.642.179a.649.649 0 0 0 .47-.469.65.65 0 0 0-.18-.639L3.204.198A.65.65 0 0 0 2.733 0zm5.274.662c-.798 0-1.51.13-2.161.336L7.53 2.677c.157-.02.314-.046.476-.046A3.287 3.287 0 0 1 11.3 5.913c0 .162-.026.318-.046.475l2.258 2.25a13.03 13.03 0 0 0 1.534-2.105c.234-.394.231-.881.01-1.287-.77-1.412-2.953-4.584-7.05-4.584zM5.264 4.108l.963.959c-.124.257-.196.54-.196.846a1.973 1.973 0 0 0 2.825 1.774l.965.962a3.3 3.3 0 0 1-2.342.506C6.1 8.94 4.97 7.815 4.755 6.439a3.263 3.263 0 0 1 .51-2.331z" fill="currentColor" fill-rule="evenodd"/></svg>
